<?xml version="1.0" encoding="iso-8859-1"?>
<!-- Uploaded to: SVG Repo, www.svgrepo.com, Generator: SVG Repo Mixer Tools -->
<svg height="800px" width="800px" version="1.1" id="Layer_1" xmlns="http://www.w3.org/2000/svg" xmlns:xlink="http://www.w3.org/1999/xlink" 
	 viewBox="0 0 512.001 512.001" xml:space="preserve">
<circle style="fill:#00BCD4;" cx="256.061" cy="268.263" r="194.252"/>
<g>
	<path style="fill:#231F20;" d="M133.153,301.978c-12.024-44.157,0.533-91.614,32.772-123.854c4.741-4.741,4.741-12.428,0-17.169
		c-4.741-4.741-12.428-4.741-17.169,0c-38.381,38.382-53.337,94.863-39.03,147.402c1.471,5.401,6.365,8.954,11.707,8.954
		c1.056,0,2.129-0.138,3.197-0.43C131.098,315.122,134.915,308.449,133.153,301.978z"/>
	<path style="fill:#231F20;" d="M481.417,42.915c-17.171-17.169-44.139-22.395-78.749-15.498l5.832-8.288
		c3.86-5.484,2.542-13.056-2.94-16.916c-5.484-3.858-13.056-2.542-16.916,2.94l-26.093,37.075c-2.071,2.943-2.73,6.653-1.798,10.13
		c0.932,3.477,3.357,6.359,6.623,7.873l41.135,19.062c1.652,0.766,3.388,1.128,5.097,1.128c4.582,0,8.97-2.608,11.024-7.039
		c2.819-6.084,0.172-13.301-5.911-16.12l-12.504-5.794c26.57-5.502,46.827-2.591,58.032,8.615
		c17.693,17.692,14.67,56.896-8.295,107.561c-2.996,6.611-6.29,13.32-9.852,20.101C414.663,113.833,341.32,61.873,256.066,61.873
		c-113.805,0-206.393,92.588-206.393,206.393c0,17.006,2.082,33.532,5.978,49.351c-47.372,80.423-56.515,144.422-24.937,176
		c12.266,12.266,29.622,18.386,51.119,18.385c23.396-0.001,51.698-7.257,83.636-21.731c13.453-6.097,27.267-13.337,41.282-21.58
		c15.808,3.891,32.322,5.97,49.315,5.97c113.805,0,206.393-92.588,206.393-206.393c0-16.992-2.078-33.506-5.97-49.315
		c8.244-14.016,15.482-27.829,21.58-41.282C505.844,116.388,507.033,68.531,481.417,42.915z M256.066,86.154
		c82.027,0,151.549,54.516,174.267,129.215c-25.599,41.6-60.392,84.962-101.296,125.867
		c-40.903,40.905-84.267,75.698-125.867,101.296c-74.7-22.717-129.215-92.241-129.215-174.267
		C73.955,167.849,155.649,86.154,256.066,86.154z M155.446,468.153c-50.663,22.962-89.868,25.987-107.561,8.295
		c-13.598-13.598-12.506-37.485-9.195-55.129c3.962-21.12,13.333-45.858,27.354-72.506c20.911,49.147,60.353,88.583,109.504,109.488
		C168.766,461.863,162.057,465.157,155.446,468.153z M438.177,268.266c0,100.416-81.695,182.111-182.111,182.111
		c-6.368,0-12.66-0.331-18.862-0.972c36.534-24.765,73.715-55.71,109.002-90.997s66.233-72.468,90.997-109.002
		C437.845,255.606,438.177,261.898,438.177,268.266z"/>
	<path style="fill:#231F20;" d="M269.454,344.786c2.913,0,5.835-1.042,8.161-3.155c8.965-8.145,17.889-16.653,26.526-25.29
		c34.424-34.424,65.073-71.627,88.635-107.588c3.675-5.609,2.108-13.134-3.501-16.809c-5.608-3.674-13.133-2.108-16.809,3.501
		c-22.664,34.591-52.228,70.459-85.495,103.725c-8.364,8.364-17.004,16.602-25.685,24.488c-4.962,4.508-5.331,12.187-0.822,17.149
		C262.86,343.447,266.15,344.786,269.454,344.786z"/>
	<path style="fill:#231F20;" d="M221.407,384.729c2.55,0,5.121-0.8,7.311-2.455c2.474-1.871,4.95-3.768,7.426-5.696
		c5.292-4.118,6.244-11.745,2.126-17.037c-4.118-5.292-11.746-6.245-17.037-2.126c-2.386,1.856-4.771,3.686-7.156,5.488
		c-5.349,4.043-6.408,11.656-2.366,17.006C214.099,383.067,217.73,384.729,221.407,384.729z"/>
</g>
</svg>